/* XPM */
static const char *exit[] = {
/* columns rows colors chars-per-pixel */
"50 50 5 1 ",
"  c #9C5A3C",
". c #9C6954",
"X c #E3D217",
"o c #FFF461",
"O c #0BCFB1",
/* pixels */
"OOOOOOOOOOOOOOOOOOOOOOOOOOOOOOOOOOOOOOOOOOOOOOOOOO",
"OOOOOOOOOOOOOOOOOOOOOOOOOOOOOOOOOOOOOOOOOOOOOOOOOO",
"OOOOOOOOOOOOOOOOOOOOOOOOOOOOOOOOOOOOOOOOOOOOOOOOOO",
"OOOooooooooooooooooooooooooooooooooooooooooooooOOO",
"OOOoooooooXoXooooooooooooXoooooooooooooooooooooOOO",
"OOOooooooXXXXXoXooooooooXoooXooooooXXooooooooooOOO",
"OOOooooXXoooXXXXXoXXXoooooXXXoooooXXXXXXoooooooOOO",
"OOOoooXoXXoXXXXXXXoXXooXXXXooXXoXXXXoXoXoooooooOOO",
"OOOoooXoXXXXXXXXoXXXXoXXoXXXXXoXXXXXoXXXXooooooOOO",
"OOOoooXXXXXXoXXXXXXXXXXoXXXXXXXXoXXXXXoXXXXooooOOO",
"OOOooXXoXXXXXXXXXXXXX        XXXXXXXXXXXXXXXoooOOO",
"OOOoooXoXoXXXoXXXXX   XXoXXX  XXXXXXXXXXXXXXoooOOO",
"OOOooooXXoXXXXXXXX  XXXXXXXXX  XXXXXXXXXXXXXoooOOO",
"OOOoooXoXXXXXXXXX  XooooXXXXXX  XXXXXXXXXXoXoooOOO",
"OOOoooooXXXXXXXXX XXXoXXXXXXXXX XXXXXXXXXXooXooOOO",
"OOOooooooXXXXXXX  XXXooXXXXXXXo  XXXXoXXoXoooooOOO",
"OOOoooooXXXXXXXX XXXoXooXXXXXXoX oXXXXXXooXooooOOO",
"OOOooooooXXXoXXX oXXXXXooXXXooXo  XXXXXXXXoooooOOO",
"OOOoooooXoXXXXXX XoXXXXXXXXXXoXXX XXooXXXXoooooOOO",
"OOOooXoXXoXXXXoX XXXXXXXXXXXXXXXX XXXXXoXXXooooOOO",
"OOOooXXXoXXXXXXo ooXXoXXXXXXXXXXX XXXXXXoXoooooOOO",
"OOOooXooXoXXXXX  oXXoooXXXXXXXXXX XXXXooXXXooooOOO",
"OOOooXXXoXXXXXX XXXXXXXXXXXXXXXXX XXooXXXXXooooOOO",
"OOOoXooXXooXoXX oXoXXXXXXXXXXXXoXX XXXXooXXXoooOOO",
"OOOoooo                                     oooOOO",
"OOOooo                                      oooOOO",
"OOOooo             .                        oooOOO",
"OOOooo   ....            .     .    .       oooOOO",
"OOOooo                                     ooooOOO",
"OOOooo             .                       ooooOOO",
"OOOooo         .                  .    .   ooooOOO",
"OOOoooo                  .       .        XooooOOO",
"OOOoooo                                  ooXXooOOO",
"OOOooooo                                XXoXoooOOO",
"OOOooooXX                              XXXXXoooOOO",
"OOOoooXXooX                          XXXXXXXoooOOO",
"OOOooXXXXXXXXXX                   XXXXXXXXXXoooOOO",
"OOOoooXXXXXXXXXXXXXXXo   XoXXXXXXoXXXXXXXXXXoooOOO",
"OOOoXXXXoXoXXXXXXXXXXXXXXXXXXXXXXXXXXXXoXXXXoooOOO",
"OOOoXoooXXoXXXoXXXXXXXXXoXoXoXXXXXXXXXXXXXoXoooOOO",
"OOOoooXoXXoXXoXXXoXXXXoooXXXXXXXooXXXoXXXXXXoooOOO",
"OOOooXoXooooooXXoXXXoXoooXoXXXXoXoXXXXoXXXXooooOOO",
"OOOooXXXXXoXoXooXXooXooooooXXoooooooXXXXoXoooooOOO",
"OOOooXooooXXXXoXoXXoooooooooooooooooXXXXXooooooOOO",
"OOOoooXoXXooXXoooooooooooooooooooooooXoooooooooOOO",
"OOOooooooooooooooooooooooooooooooooooooooooooooOOO",
"OOOoooooooXooooooooooooooooooooooooooooooooooooOOO",
"OOOOOOOOOOOOOOOOOOOOOOOOOOOOOOOOOOOOOOOOOOOOOOOOOO",
"OOOOOOOOOOOOOOOOOOOOOOOOOOOOOOOOOOOOOOOOOOOOOOOOOO",
"OOOOOOOOOOOOOOOOOOOOOOOOOOOOOOOOOOOOOOOOOOOOOOOOOO"
};
