/* XPM */
static const char *ground[] = {
/* columns rows colors chars-per-pixel */
"50 50 3 1 ",
"  c #E3D217",
". c #FFF461",
"X c #0BCFB1",
/* pixels */
"XXXXXXXXXXXXXXXXXXXXXXXXXXXXXXXXXXXXXXXXXXXXXXXXXX",
"XXXXXXXXXXXXXXXXXXXXXXXXXXXXXXXXXXXXXXXXXXXXXXXXXX",
"XXXXXXXXXXXXXXXXXXXXXXXXXXXXXXXXXXXXXXXXXXXXXXXXXX",
"XXX............................................XXX",
"XXX....... . ............ .....................XXX",
"XXX......     . ........ ... ......  ..........XXX",
"XXX....  ...     .   .....   .....      .......XXX",
"XXX... .  .       .  ..    ..  .    . . .......XXX",
"XXX... .        .    .  .     .     .    ......XXX",
"XXX...      .          .        .     .    ....XXX",
"XXX..  .                                    ...XXX",
"XXX... . .   .          .    .              ...XXX",
"XXX....  .                                  ...XXX",
"XXX... .            ....                  . ...XXX",
"XXX.....             .                    .. ..XXX",
"XXX......            ..       ...    .  . .....XXX",
"XXX.....            . ..      .  .      .. ....XXX",
"XXX......   .    .     ..   .. . .        .....XXX",
"XXX..... .        .          .      ..    .....XXX",
"XXX.. .  .    . .                      .   ....XXX",
"XXX..   .      . ..  .                  . .....XXX",
"XXX.. .. .      ..  ...               ..   ....XXX",
"XXX..   .      .                    ..     ....XXX",
"XXX. ..  .. .   . .            .       ..   ...XXX",
"XXX.... ..      . . .              . ... .  ...XXX",
"XXX... . .   .     .          ..          .....XXX",
"XXX....       ..                      .   .....XXX",
"XXX.....  .        .     .              . .....XXX",
"XXX....  .            .               .. ......XXX",
"XXX......                .    . . .   . . .....XXX",
"XXX..... .. .                .      ..    .....XXX",
"XXX.....   .            .        . .       ....XXX",
"XXX...... .               .   .     .   ...  ..XXX",
"XXX...... .                 .             . ...XXX",
"XXX....             .                       ...XXX",
"XXX...  ..                  .               ...XXX",
"XXX..                           .           ...XXX",
"XXX...               .    .      .          ...XXX",
"XXX.    . .                            .    ...XXX",
"XXX. ...  .   .         . . .             . ...XXX",
"XXX... .  .  .   .    ...       ..   .      ...XXX",
"XXX.. . ......  .   . ... .    . .    .    ....XXX",
"XXX..     . . ..  .. ......  .......    . .....XXX",
"XXX.. ....    . .  .................     ......XXX",
"XXX... .  ..  ....................... .........XXX",
"XXX............................................XXX",
"XXX....... ....................................XXX",
"XXXXXXXXXXXXXXXXXXXXXXXXXXXXXXXXXXXXXXXXXXXXXXXXXX",
"XXXXXXXXXXXXXXXXXXXXXXXXXXXXXXXXXXXXXXXXXXXXXXXXXX",
"XXXXXXXXXXXXXXXXXXXXXXXXXXXXXXXXXXXXXXXXXXXXXXXXXX"
};
