/* XPM */
static const char *player_up[] = {
/* columns rows colors chars-per-pixel */
"50 50 4 1 ",
"  c #FF7E00",
". c #E3D217",
"X c #FFF461",
"o c #0BCFB1",
/* pixels */
"oooooooooooooooooooooooooooooooooooooooooooooooooo",
"oooooooooooooooooooooooooooooooooooooooooooooooooo",
"oooooooooooooooooooooooooooooooooooooooooooooooooo",
"oooXXXXXXXXXXXXXXXXXXXXXXXXXXXXXXXXXXXXXXXXXXXXooo",
"oooXXXXXXX.X.XXXXXXXXXXXX.XXXXXXXXXXXXXXXXXXXXXooo",
"oooXXXXXX....                         XXXXXXXXXooo",
"oooXXXX..XXX.                         ..XXXXXXXooo",
"oooXXX.X..X..                         X.XXXXXXXooo",
"oooXXX.X.....                         ...XXXXXXooo",
"oooXXX......X                         X....XXXXooo",
"oooXX..X.....                         ......XXXooo",
"oooXXX.X.X...                         ......XXXooo",
"oooXXXX..X...                         ......XXXooo",
"oooXXX.X.....                         ....X.XXXooo",
"oooXXXXX.....                         ....XX.XXooo",
"oooXXXXXX....                         ..X.XXXXXooo",
"oooXXXXX.....                         ..XX.XXXXooo",
"oooXXXXXX...X                         ....XXXXXooo",
"oooXXXXX.X...                         ....XXXXXooo",
"oooXX.X..X...                         .X...XXXXooo",
"oooXX...X....                         ..X.XXXXXooo",
"oooXX.XX.X...                         XX...XXXXooo",
"oooXX...X....                         .....XXXXooo",
"oooX.XX..XX.X...X.X...    .....X.......XX...XXXooo",
"oooXXXX.XX......X.X.X.    .........X.XXX.X..XXXooo",
"oooXXX.X.X...X..          ....XX..........XXXXXooo",
"oooXXXX.....                      ....X...XXXXXooo",
"oooXXXXX..X.                      ......X.XXXXXooo",
"oooXXXX..X..                      ....XX.XXXXXXooo",
"oooXXXXXX...       ..             X...X.X.XXXXXooo",
"oooXXXXX.XX.X........     ...X......XX....XXXXXooo",
"oooXXXXX...X.........     .......X.X.......XXXXooo",
"oooXXXXXX.X........        ...X.....X...XXX..XXooo",
"oooXXXXXX.X........         X.............X.XXXooo",
"oooXXXX...........           ...............XXXooo",
"oooXXX..XX........             .............XXXooo",
"oooXX............               X...........XXXooo",
"oooXXX..........       .         X..........XXXooo",
"oooX....X.X.....      ....       ......X....XXXooo",
"oooX.XXX..X...X.      ..X.X      .........X.XXXooo",
"oooXXX.X..X..X..     .XXX...     X...X......XXXooo",
"oooXX.X.XXXXXX..X...X.XXX.X....X.X....X....XXXXooo",
"oooXX.....X.X.XX..XX.XXXXXX..XXXXXXX....X.XXXXXooo",
"oooXX.XXXX....X.X..XXXXXXXXXXXXXXXXX.....XXXXXXooo",
"oooXXX.X..XX..XXXXXXXXXXXXXXXXXXXXXXX.XXXXXXXXXooo",
"oooXXXXXXXXXXXXXXXXXXXXXXXXXXXXXXXXXXXXXXXXXXXXooo",
"oooXXXXXXX.XXXXXXXXXXXXXXXXXXXXXXXXXXXXXXXXXXXXooo",
"oooooooooooooooooooooooooooooooooooooooooooooooooo",
"oooooooooooooooooooooooooooooooooooooooooooooooooo",
"oooooooooooooooooooooooooooooooooooooooooooooooooo"
};
