/* XPM */
static const char *wall[] = {
/* columns rows colors chars-per-pixel */
"50 50 2 1 ",
"  c #0BCFB1",
". c #BCFAF1",
/* pixels */
"      ..           ..            ..........       ",
"      ..          ...            ..........       ",
"      ..          ..                 ..           ",
"      ...         ..                 ...          ",
"       ...        ..                  ...         ",
"        ..       ...                   ..         ",
"        ....     ..                    ...        ",
"         ............                   ...       ",
"           ..........                    ....     ",
"               ....                       ....    ",
"               ...                          ...   ",
"               ...                           ...  ",
"               ..                             ....",
"               ...                             ...",
"                ..                               .",
"                ..                                ",
"..              ..                          ......",
"....            ..                      ..........",
" ....        ......                    ......     ",
"  ..................                  ...         ",
"    ..........    ..                  ..          ",
"      ...         ....               ...          ",
"       ...         ....             ...           ",
"        ..           ...           ....           ",
"        ...           ...         ....            ",
"       .....           ....     .....             ",
"      .......           ..... .....               ",
"    ....   ...            .......                 ",
".......     ...             ........              ",
".....        ...              ......              ",
".             ....            .. ..               ",
"..             .....          .. ...              ",
"..               .....       ...  ...             ",
"...               .....   ......   ...            ",
"...                 ............    ...           ",
" ...                  ..........     ....         ",
"  ....                    .....       ........    ",
".. ....                  .....          ..........",
"..  .......            .........             .....",
"      .........       .....  ....                 ",
"        .................      ..                 ",
"..      ..    ..........       ...                ",
"..     ...          ..          ...               ",
"..    ...           ..           ....             ",
"..   ....           ..            ....            ",
"..   ..             ...             ...           ",
".. ....              ...             ...          ",
"......                ...             ....        ",
"....                   ...             ....       ",
"...............         .....            .......  "
};
